<?xml version="1.0" encoding="UTF-8" standalone="no"?>
<!-- Created with Inkscape (http://www.inkscape.org/) -->

<svg
   xmlns:dc="http://purl.org/dc/elements/1.1/"
   xmlns:cc="http://creativecommons.org/ns#"
   xmlns:rdf="http://www.w3.org/1999/02/22-rdf-syntax-ns#"
   xmlns:svg="http://www.w3.org/2000/svg"
   xmlns="http://www.w3.org/2000/svg"
   xmlns:sodipodi="http://sodipodi.sourceforge.net/DTD/sodipodi-0.dtd"
   xmlns:inkscape="http://www.inkscape.org/namespaces/inkscape"
   width="585.0368"
   height="426.08725"
   id="svg2"
   sodipodi:version="0.32"
   inkscape:version="0.91 r13725"
   sodipodi:docname="demo_000.svg"
   inkscape:output_extension="org.inkscape.output.svg.inkscape"
   version="1.0">
  <defs
     id="defs4">
    <inkscape:perspective
       sodipodi:type="inkscape:persp3d"
       inkscape:vp_x="0 : 526.18109 : 1"
       inkscape:vp_y="0 : 1000 : 0"
       inkscape:vp_z="744.09448 : 526.18109 : 1"
       inkscape:persp3d-origin="372.04724 : 350.78739 : 1"
       id="perspective10" />
  </defs>
  <sodipodi:namedview
     id="base"
     pagecolor="#ffffff"
     bordercolor="#666666"
     borderopacity="1.0"
     gridtolerance="10000"
     guidetolerance="10"
     objecttolerance="10"
     inkscape:pageopacity="0.0"
     inkscape:pageshadow="2"
     inkscape:zoom="1.4"
     inkscape:cx="90.513864"
     inkscape:cy="207.52754"
     inkscape:document-units="px"
     inkscape:current-layer="layer1"
     showgrid="false"
     inkscape:window-width="1536"
     inkscape:window-height="801"
     inkscape:window-x="-8"
     inkscape:window-y="-8"
     inkscape:window-maximized="1" />
  <metadata
     id="metadata7">
    <rdf:RDF>
      <cc:Work
         rdf:about="">
        <dc:format>image/svg+xml</dc:format>
        <dc:type
           rdf:resource="http://purl.org/dc/dcmitype/StillImage" />
        <dc:title />
      </cc:Work>
    </rdf:RDF>
  </metadata>
  <g
     inkscape:label="Layer 1"
     inkscape:groupmode="layer"
     id="layer1"
     transform="translate(-68.781901,-91.144083)">
    <path
       style="fill:none;fill-opacity:0.75;fill-rule:evenodd;stroke:#000000;stroke-width:1px;stroke-linecap:butt;stroke-linejoin:miter;stroke-opacity:1"
       d="M 356.78571,317.15868 L 391.07143,226.08725"
       id="path2473"
       transform="translate(68.781901,91.144083)" />
    <path
       style="fill:none;fill-opacity:0.75;fill-rule:evenodd;stroke:#000000;stroke-width:1px;stroke-linecap:butt;stroke-linejoin:miter;stroke-opacity:1"
       d="M 451.53819,316.97113 L 518.20826,415.96608"
       id="path2425" />
    <path
       style="fill:none;fill-opacity:0.75;fill-rule:evenodd;stroke:#000000;stroke-width:1px;stroke-linecap:butt;stroke-linejoin:miter;stroke-opacity:1"
       d="M 457.5991,494.75798 L 517.1981,414.95593"
       id="path2433" />
    <path
       sodipodi:type="arc"
       style="opacity:1;fill:#ffffff;fill-opacity:1;stroke:#280b0b;stroke-width:0.5;stroke-miterlimit:4;stroke-dasharray:none;stroke-opacity:1"
       id="path2383"
       sodipodi:cx="120.20815"
       sodipodi:cy="174.53963"
       sodipodi:rx="25.253813"
       sodipodi:ry="25.253813"
       d="m 145.46197,174.53963 a 25.253813,25.253813 0 0 1 -25.25382,25.25381 25.253813,25.253813 0 0 1 -25.25381,-25.25381 25.253813,25.253813 0 0 1 25.25381,-25.25382 25.253813,25.253813 0 0 1 25.25382,25.25382 z" />
    <path
       sodipodi:type="arc"
       style="opacity:1;fill:#ffffff;fill-opacity:1;stroke:#280b0b;stroke-width:0.5;stroke-miterlimit:4;stroke-dasharray:none;stroke-opacity:1"
       id="path2385"
       sodipodi:cx="120.20815"
       sodipodi:cy="174.53963"
       sodipodi:rx="25.253813"
       sodipodi:ry="25.253813"
       d="m 145.46197,174.53963 a 25.253813,25.253813 0 0 1 -25.25382,25.25381 25.253813,25.253813 0 0 1 -25.25381,-25.25381 25.253813,25.253813 0 0 1 25.25381,-25.25382 25.253813,25.253813 0 0 1 25.25382,25.25382 z"
       transform="translate(-25.922439,140.6797)" />
    <path
       sodipodi:type="arc"
       style="opacity:1;fill:#ffffff;fill-opacity:1;stroke:#280b0b;stroke-width:0.5;stroke-miterlimit:4;stroke-dasharray:none;stroke-opacity:1"
       id="path2389"
       sodipodi:cx="120.20815"
       sodipodi:cy="174.53963"
       sodipodi:rx="25.253813"
       sodipodi:ry="25.253813"
       d="m 145.46197,174.53963 a 25.253813,25.253813 0 0 1 -25.25382,25.25381 25.253813,25.253813 0 0 1 -25.25381,-25.25381 25.253813,25.253813 0 0 1 25.25381,-25.25382 25.253813,25.253813 0 0 1 25.25382,25.25382 z"
       transform="translate(99.791847,83.536841)" />
    <path
       sodipodi:type="arc"
       style="opacity:1;fill:#ffffff;fill-opacity:1;stroke:#280b0b;stroke-width:0.5;stroke-miterlimit:4;stroke-dasharray:none;stroke-opacity:1"
       id="path2391"
       sodipodi:cx="120.20815"
       sodipodi:cy="174.53963"
       sodipodi:rx="25.253813"
       sodipodi:ry="25.253813"
       d="m 145.46197,174.53963 a 25.253813,25.253813 0 0 1 -25.25382,25.25381 25.253813,25.253813 0 0 1 -25.25381,-25.25381 25.253813,25.253813 0 0 1 25.25381,-25.25382 25.253813,25.253813 0 0 1 25.25382,25.25382 z"
       transform="translate(86.934707,229.25113)" />
    <path
       sodipodi:type="arc"
       style="opacity:1;fill:#ffffff;fill-opacity:1;stroke:#280b0b;stroke-width:0.5;stroke-miterlimit:4;stroke-dasharray:none;stroke-opacity:1"
       id="path2393"
       sodipodi:cx="120.20815"
       sodipodi:cy="174.53963"
       sodipodi:rx="25.253813"
       sodipodi:ry="25.253813"
       d="m 145.46197,174.53963 a 25.253813,25.253813 0 0 1 -25.25382,25.25381 25.253813,25.253813 0 0 1 -25.25381,-25.25381 25.253813,25.253813 0 0 1 25.25381,-25.25382 25.253813,25.253813 0 0 1 25.25382,25.25382 z"
       transform="translate(184.07756,313.53684)" />
    <path
       sodipodi:type="arc"
       style="opacity:1;fill:#ffffff;fill-opacity:1;stroke:#280b0b;stroke-width:0.5;stroke-miterlimit:4;stroke-dasharray:none;stroke-opacity:1"
       id="path2395"
       sodipodi:cx="120.20815"
       sodipodi:cy="174.53963"
       sodipodi:rx="25.253813"
       sodipodi:ry="25.253813"
       d="m 145.46197,174.53963 a 25.253813,25.253813 0 0 1 -25.25382,25.25381 25.253813,25.253813 0 0 1 -25.25381,-25.25381 25.253813,25.253813 0 0 1 25.25381,-25.25382 25.253813,25.253813 0 0 1 25.25382,25.25382 z"
       transform="translate(218.36327,187.82255)" />
    <path
       sodipodi:type="arc"
       style="opacity:1;fill:#ffffff;fill-opacity:1;stroke:#280b0b;stroke-width:0.5;stroke-miterlimit:4;stroke-dasharray:none;stroke-opacity:1"
       id="path2397"
       sodipodi:cx="120.20815"
       sodipodi:cy="174.53963"
       sodipodi:rx="25.253813"
       sodipodi:ry="25.253813"
       d="m 145.46197,174.53963 a 25.253813,25.253813 0 0 1 -25.25382,25.25381 25.253813,25.253813 0 0 1 -25.25381,-25.25381 25.253813,25.253813 0 0 1 25.25381,-25.25382 25.253813,25.253813 0 0 1 25.25382,25.25382 z"
       transform="translate(238.36327,57.822553)" />
    <path
       sodipodi:type="arc"
       style="opacity:1;fill:#ffffff;fill-opacity:1;stroke:#280b0b;stroke-width:0.5;stroke-miterlimit:4;stroke-dasharray:none;stroke-opacity:1"
       id="path2399"
       sodipodi:cx="120.20815"
       sodipodi:cy="174.53963"
       sodipodi:rx="25.253813"
       sodipodi:ry="25.253813"
       d="m 145.46197,174.53963 a 25.253813,25.253813 0 0 1 -25.25382,25.25381 25.253813,25.253813 0 0 1 -25.25381,-25.25381 25.253813,25.253813 0 0 1 25.25381,-25.25382 25.253813,25.253813 0 0 1 25.25382,25.25382 z"
       transform="translate(308.36327,-57.891731)" />
    <path
       sodipodi:type="arc"
       style="opacity:1;fill:#ffffff;fill-opacity:1;stroke:#280b0b;stroke-width:0.5;stroke-miterlimit:4;stroke-dasharray:none;stroke-opacity:1"
       id="path2401"
       sodipodi:cx="120.20815"
       sodipodi:cy="174.53963"
       sodipodi:rx="25.253813"
       sodipodi:ry="25.253813"
       d="m 145.46197,174.53963 a 25.253813,25.253813 0 0 1 -25.25382,25.25381 25.253813,25.253813 0 0 1 -25.25381,-25.25381 25.253813,25.253813 0 0 1 25.25381,-25.25382 25.253813,25.253813 0 0 1 25.25382,25.25382 z"
       transform="translate(382.64899,32.108269)" />
    <path
       sodipodi:type="arc"
       style="opacity:1;fill:#ffffff;fill-opacity:1;stroke:#280b0b;stroke-width:0.5;stroke-miterlimit:4;stroke-dasharray:none;stroke-opacity:1"
       id="path2403"
       sodipodi:cx="120.20815"
       sodipodi:cy="174.53963"
       sodipodi:rx="25.253813"
       sodipodi:ry="25.253813"
       d="m 145.46197,174.53963 a 25.253813,25.253813 0 0 1 -25.25382,25.25381 25.253813,25.253813 0 0 1 -25.25381,-25.25381 25.253813,25.253813 0 0 1 25.25381,-25.25382 25.253813,25.253813 0 0 1 25.25382,25.25382 z"
       transform="translate(339.79185,142.10827)" />
    <path
       sodipodi:type="arc"
       style="opacity:1;fill:#ffffff;fill-opacity:1;stroke:#280b0b;stroke-width:0.5;stroke-miterlimit:4;stroke-dasharray:none;stroke-opacity:1"
       id="path2405"
       sodipodi:cx="120.20815"
       sodipodi:cy="174.53963"
       sodipodi:rx="25.253813"
       sodipodi:ry="25.253813"
       d="m 145.46197,174.53963 a 25.253813,25.253813 0 0 1 -25.25382,25.25381 25.253813,25.253813 0 0 1 -25.25381,-25.25381 25.253813,25.253813 0 0 1 25.25381,-25.25382 25.253813,25.253813 0 0 1 25.25382,25.25382 z"
       transform="translate(395.50613,236.39398)" />
    <path
       sodipodi:type="arc"
       style="opacity:1;fill:#ffffff;fill-opacity:1;stroke:#280b0b;stroke-width:0.5;stroke-miterlimit:4;stroke-dasharray:none;stroke-opacity:1"
       id="path2429"
       sodipodi:cx="120.20815"
       sodipodi:cy="174.53963"
       sodipodi:rx="25.253813"
       sodipodi:ry="25.253813"
       d="m 145.46197,174.53963 a 25.253813,25.253813 0 0 1 -25.25382,25.25381 25.253813,25.253813 0 0 1 -25.25381,-25.25381 25.253813,25.253813 0 0 1 25.25381,-25.25382 25.253813,25.253813 0 0 1 25.25382,25.25382 z"
       transform="translate(508.10673,154.55333)" />
    <path
       sodipodi:type="arc"
       style="opacity:1;fill:#ffffff;fill-opacity:1;stroke:#280b0b;stroke-width:0.5;stroke-miterlimit:4;stroke-dasharray:none;stroke-opacity:1"
       id="path2431"
       sodipodi:cx="120.20815"
       sodipodi:cy="174.53963"
       sodipodi:rx="25.253813"
       sodipodi:ry="25.253813"
       d="m 145.46197,174.53963 a 25.253813,25.253813 0 0 1 -25.25382,25.25381 25.253813,25.253813 0 0 1 -25.25381,-25.25381 25.253813,25.253813 0 0 1 25.25381,-25.25382 25.253813,25.253813 0 0 1 25.25382,25.25382 z"
       transform="translate(338.4011,317.18789)" />
    <path
       sodipodi:type="arc"
       style="opacity:1;fill:#ffffff;fill-opacity:1;stroke:#280b0b;stroke-width:0.5;stroke-miterlimit:4;stroke-dasharray:none;stroke-opacity:1"
       id="path2469"
       sodipodi:cx="120.20815"
       sodipodi:cy="174.53963"
       sodipodi:rx="25.253813"
       sodipodi:ry="25.253813"
       d="m 145.46197,174.53963 a 25.253813,25.253813 0 0 1 -25.25382,25.25381 25.253813,25.253813 0 0 1 -25.25381,-25.25381 25.253813,25.253813 0 0 1 25.25381,-25.25382 25.253813,25.253813 0 0 1 25.25382,25.25382 z"
       transform="translate(304.14745,231.57492)" />
    <path
       style="fill:none;fill-rule:evenodd;stroke:#000000;stroke-width:1px;stroke-linecap:butt;stroke-linejoin:miter;stroke-opacity:1"
       d="m 362.20546,353.46466 74.16051,-27.91925"
       id="path4185"
       inkscape:connector-type="polyline"
       inkscape:connector-curvature="0"
       inkscape:connection-start="#path2395"
       inkscape:connection-end="#path2403" />
    <path
       style="fill:none;fill-rule:evenodd;stroke:#000000;stroke-width:1px;stroke-linecap:butt;stroke-linejoin:miter;stroke-opacity:1"
       d="M 440.57745,300.50803 377.99398,248.50205"
       id="path4187"
       inkscape:connector-type="polyline"
       inkscape:connector-curvature="0"
       inkscape:connection-start="#path2403"
       inkscape:connection-end="#path2397" />
    <path
       style="fill:none;fill-rule:evenodd;stroke:#000000;stroke-width:1px;stroke-linecap:butt;stroke-linejoin:miter;stroke-opacity:1"
       d="m 383.43306,227.93139 94.56245,-16.85271"
       id="path4189"
       inkscape:connector-type="polyline"
       inkscape:connector-curvature="0"
       inkscape:connection-start="#path2397"
       inkscape:connection-end="#path2401" />
    <path
       style="fill:none;fill-rule:evenodd;stroke:#000000;stroke-width:1px;stroke-linecap:butt;stroke-linejoin:miter;stroke-opacity:1"
       d="m 371.64256,210.75479 43.85773,-72.49951"
       id="path4191"
       inkscape:connector-type="polyline"
       inkscape:connector-curvature="0"
       inkscape:connection-start="#path2397"
       inkscape:connection-end="#path2399" />
    <path
       style="fill:none;fill-rule:evenodd;stroke:#000000;stroke-width:1px;stroke-linecap:butt;stroke-linejoin:miter;stroke-opacity:1"
       d="m 444.6469,136.12396 42.13476,51.04787"
       id="path4193"
       inkscape:connector-type="polyline"
       inkscape:connector-curvature="0"
       inkscape:connection-start="#path2399"
       inkscape:connection-end="#path2401" />
    <path
       style="fill:none;fill-rule:evenodd;stroke:#000000;stroke-width:1px;stroke-linecap:butt;stroke-linejoin:miter;stroke-opacity:1"
       d="m 520.92995,224.28671 89.31213,87.16743"
       id="path4195"
       inkscape:connector-type="polyline"
       inkscape:connector-curvature="0"
       inkscape:connection-start="#path2401"
       inkscape:connection-end="#path2429" />
    <path
       style="fill:none;fill-rule:evenodd;stroke:#000000;stroke-width:1px;stroke-linecap:butt;stroke-linejoin:miter;stroke-opacity:1"
       d="m 536.14207,396.08623 71.74503,-52.1459"
       id="path4197"
       inkscape:connector-type="polyline"
       inkscape:connector-curvature="0"
       inkscape:connection-start="#path2405"
       inkscape:connection-end="#path2429" />
    <path
       style="fill:none;fill-rule:evenodd;stroke:#000000;stroke-width:1px;stroke-linecap:butt;stroke-linejoin:miter;stroke-opacity:1"
       d="m 331.92681,386.72575 -20.99649,76.98714"
       id="path4199"
       inkscape:connector-type="polyline"
       inkscape:connector-curvature="0"
       inkscape:connection-start="#path2395"
       inkscape:connection-end="#path2393" />
    <path
       style="fill:none;fill-rule:evenodd;stroke:#000000;stroke-width:1px;stroke-linecap:butt;stroke-linejoin:miter;stroke-opacity:1"
       d="m 226.21737,420.3407 58.99383,51.18582"
       id="path4201"
       inkscape:connector-type="polyline"
       inkscape:connector-curvature="0"
       inkscape:connection-start="#path2391"
       inkscape:connection-end="#path2393" />
    <path
       style="fill:none;fill-rule:evenodd;stroke:#000000;stroke-width:1px;stroke-linecap:butt;stroke-linejoin:miter;stroke-opacity:1"
       d="m 114.15171,330.81037 73.12515,57.38935"
       id="path4203"
       inkscape:connector-type="polyline"
       inkscape:connector-curvature="0"
       inkscape:connection-start="#path2385"
       inkscape:connection-end="#path2391" />
    <path
       style="fill:none;fill-rule:evenodd;stroke:#000000;stroke-width:1px;stroke-linecap:butt;stroke-linejoin:miter;stroke-opacity:1"
       d="M 115.63183,199.37509 98.862036,290.38387"
       id="path4205"
       inkscape:connector-type="polyline"
       inkscape:connector-curvature="0"
       inkscape:connection-start="#path2383"
       inkscape:connection-end="#path2385" />
    <path
       style="fill:none;fill-rule:evenodd;stroke:#000000;stroke-width:1px;stroke-linecap:butt;stroke-linejoin:miter;stroke-opacity:1"
       d="m 139.57241,190.74965 61.06334,51.11679"
       id="path4207"
       inkscape:connector-type="polyline"
       inkscape:connector-curvature="0"
       inkscape:connection-start="#path2383"
       inkscape:connection-end="#path2389" />
    <path
       style="fill:none;fill-rule:evenodd;stroke:#000000;stroke-width:1px;stroke-linecap:butt;stroke-linejoin:miter;stroke-opacity:1"
       d="m 217.78037,283.23228 -8.41788,95.40267"
       id="path4209"
       inkscape:connector-type="polyline"
       inkscape:connector-curvature="0"
       inkscape:connection-start="#path2389"
       inkscape:connection-end="#path2391" />
  </g>
</svg>
